HIERARCHY
ROOT Hips
{
	OFFSET 0.000000 0.000000 0.000000
	CHANNELS 6 Xposition Yposition Zposition Zrotation Yrotation Xrotation 
	JOINT LeftUpLeg_virtual
	{
		OFFSET 0.000000 0.000000 0.000000
		CHANNELS 3 Zrotation Yrotation Xrotation
		JOINT LeftUpLeg
		{
			OFFSET 10.205400 -3.823500 0.155100
			CHANNELS 3 Zrotation Yrotation Xrotation
			JOINT LeftLeg
			{
				OFFSET 0.708757 -12.982077 0.567790
				CHANNELS 3 Zrotation Yrotation Xrotation
				JOINT LeftFoot
				{
					OFFSET -0.708756 -10.717838 -2.184338
					CHANNELS 3 Zrotation Yrotation Xrotation
					JOINT LeftToeBase
					{
						OFFSET 0.108149 -7.191104 7.560241
						CHANNELS 3 Zrotation Yrotation Xrotation
						End Site
						{
							OFFSET 0.000000 0.000000 0.000000
						}
					}
				}
			}
		}
	}
	JOINT RightUpLeg_virtual
	{
		OFFSET 0.000000 0.000000 0.000000
		CHANNELS 3 Zrotation Yrotation Xrotation
		JOINT RightUpLeg
		{
			OFFSET -10.205400 -3.823500 0.005500
			CHANNELS 3 Zrotation Yrotation Xrotation
			JOINT RightLeg
			{
				OFFSET -0.708756 -12.982134 0.610632
				CHANNELS 3 Zrotation Yrotation Xrotation
				JOINT RightFoot
				{
					OFFSET 0.708754 -10.717769 -1.945823
					CHANNELS 3 Zrotation Yrotation Xrotation
					JOINT RightToeBase
					{
						OFFSET -0.108140 -7.191069 7.372968
						CHANNELS 3 Zrotation Yrotation Xrotation
						End Site
						{
							OFFSET 0.000000 0.000000 0.000000
						}
					}
				}
			}
		}
	}
	JOINT Spine_virtual
	{
		OFFSET 0.000000 0.000000 0.000000
		CHANNELS 3 Zrotation Yrotation Xrotation
		JOINT Spine
		{
			OFFSET 0.000000 6.876099 0.125700
			CHANNELS 3 Zrotation Yrotation Xrotation
			JOINT Spine1
			{
				OFFSET 0.000000 8.022060 0.146608
				CHANNELS 3 Zrotation Yrotation Xrotation
				JOINT Spine2
				{
					OFFSET 0.000000 9.168068 0.167552
					CHANNELS 3 Zrotation Yrotation Xrotation
					JOINT Neck_virtual
					{
						OFFSET 0.000000 0.000000 0.000000
						CHANNELS 3 Zrotation Yrotation Xrotation
						JOINT Neck
						{
							OFFSET 0.000000 10.314075 0.188496
							CHANNELS 3 Zrotation Yrotation Xrotation
							JOINT Head
							{
								OFFSET 0.000000 7.643700 -2.377400
								CHANNELS 3 Zrotation Yrotation Xrotation
								End Site
								{
									OFFSET 0.000000 0.000000 0.000000
								}
							}
						}
					}
					JOINT LeftShoulder_virtual
					{
						OFFSET 0.000000 0.000000 0.000000
						CHANNELS 3 Zrotation Yrotation Xrotation
						JOINT LeftShoulder
						{
							OFFSET 4.392200 8.824978 0.174984
							CHANNELS 3 Zrotation Yrotation Xrotation
							JOINT LeftArm
							{
								OFFSET 8.771219 -2.981674 -0.026999
								CHANNELS 3 Zrotation Yrotation Xrotation
								JOINT LeftForeArm
								{
									OFFSET 8.512804 0.000000 -0.000000
									CHANNELS 3 Zrotation Yrotation Xrotation
									JOINT LeftHand
									{
										OFFSET 18.484802 0.000000 -0.000000
										CHANNELS 3 Zrotation Yrotation Xrotation
										End Site
										{
											OFFSET 0.000000 0.000000 0.000000
										}
									}
								}
							}
						}
					}
					JOINT RightShoulder_virtual
					{
						OFFSET 0.000000 0.000000 0.000000
						CHANNELS 3 Zrotation Yrotation Xrotation
						JOINT RightShoulder
						{
							OFFSET -4.392200 8.824993 0.141379
							CHANNELS 3 Zrotation Yrotation Xrotation
							JOINT RightArm
							{
								OFFSET -8.771282 -2.981682 -0.094208
								CHANNELS 3 Zrotation Yrotation Xrotation
								JOINT RightForeArm
								{
									OFFSET -8.494598 0.000000 0.000000
									CHANNELS 3 Zrotation Yrotation Xrotation
									JOINT RightHand
									{
										OFFSET -18.483803 0.000000 0.000001
										CHANNELS 3 Zrotation Yrotation Xrotation
										End Site
										{
											OFFSET 0.000000 0.000000 0.000000
										}
									}
								}
							}
						}
					}
				}
			}
		}
	}
}
MOTION
Frames: 8
Frame Time: 0.033333
8.257688 34.203194 -43.095314 -179.214779 -73.892634 179.368158 -0.801642 -5.216893 9.695951 2.375671 3.294783 -38.755081 5.165941 6.314568 23.318356 -14.166506 3.163333 14.811151 0.000000 0.000000 0.000000 4.143143 -4.376103 7.912795 7.110988 4.746857 -27.957861 -4.248259 5.632867 23.201815 4.587929 0.510125 7.349228 0.000000 0.000000 0.000000 1.258193 -2.414724 -1.012112 0.127993 2.514386 -7.785722 -0.313571 -3.466692 8.545853 -0.048069 -0.103436 0.056957 -0.451681 -1.656418 9.130420 -0.648449 -4.136481 11.345332 0.000000 0.000000 0.000000 1.359240 -1.174257 6.309764 -6.726977 -7.649067 1.595434 -59.692657 25.256709 -9.184960 -83.472398 -87.821923 90.204874 0.000000 0.000000 0.000000 -2.713102 0.162739 5.524105 26.340790 10.803289 4.384615 53.307885 -17.111574 -12.080420 -17.387491 63.727482 -16.277628 0.000000 0.000000 0.000000 
8.572647 34.223389 -42.760246 -179.245611 -75.796809 179.490842 -0.519622 -5.699602 10.005582 2.214565 4.439223 -38.416221 6.805294 7.128022 26.944907 -11.708408 3.982960 13.540750 0.000000 0.000000 0.000000 4.072745 -4.500243 7.999155 6.762341 3.677478 -28.399595 -4.324545 5.461912 22.594860 4.883301 0.768623 7.752441 0.000000 0.000000 0.000000 1.250024 -2.346484 -1.001530 -0.168951 2.769807 -7.524933 -0.676681 -3.535824 8.699533 -0.052081 -0.037893 0.064969 -0.848234 -1.657833 9.362075 -1.143548 -3.878517 11.107436 0.000000 0.000000 0.000000 1.041806 -1.132420 6.402540 -5.324005 -7.788647 1.497611 -58.980186 24.217655 -6.723704 -148.610901 -85.025746 156.633641 0.000000 0.000000 0.000000 -2.958297 0.252860 5.800605 26.516307 10.517706 4.169399 53.609967 -18.092013 -9.178854 -17.236112 63.721048 -16.556963 0.000000 0.000000 0.000000 
8.846786 34.229473 -42.505424 -179.321344 -77.249945 179.669246 -0.485360 -5.959804 10.334396 1.599968 5.457817 -38.198332 8.208041 8.475472 29.685805 -9.742163 5.056113 13.543637 0.000000 0.000000 0.000000 3.977258 -4.623753 8.236780 6.173541 3.025114 -29.008531 -4.319550 4.798192 22.004351 5.144259 1.003197 8.183665 0.000000 0.000000 0.000000 1.287925 -2.578800 -1.044917 -0.315612 3.257435 -7.325197 -0.971990 -3.357717 8.786197 -0.025862 -0.136125 0.099500 -1.205163 -1.635439 9.549440 -1.173605 -3.788623 11.074450 0.000000 0.000000 0.000000 0.678911 -1.142912 6.626529 -4.300439 -7.803776 1.510878 -58.389429 23.347263 -4.502345 -160.731973 -81.391936 170.009952 0.000000 0.000000 0.000000 -3.218441 0.258324 5.923797 26.523631 9.975123 3.792431 53.970618 -19.294786 -6.359129 -17.176821 64.309796 -16.997812 0.000000 0.000000 0.000000 
9.123548 34.220257 -42.259449 -179.507439 -78.251217 179.881474 -0.548941 -5.861717 10.814286 0.971472 5.590549 -37.970797 9.154085 8.854472 31.210235 -8.808572 5.432684 13.686491 0.000000 0.000000 0.000000 3.765719 -4.787788 8.668922 5.454010 2.642342 -29.890001 -4.126871 3.781064 21.602119 5.375177 1.068613 8.792368 0.000000 0.000000 0.000000 1.387233 -2.680072 -1.005953 -0.352313 3.604200 -7.095904 -1.211032 -3.265715 8.895818 -0.022327 -0.112568 0.111996 -1.489497 -1.641079 9.647217 -0.677307 -3.890405 11.103555 0.000000 0.000000 0.000000 0.404146 -1.031207 6.623419 -3.752169 -7.600686 1.480429 -57.947701 22.780117 -2.587602 -164.034479 -78.845129 174.486130 0.000000 0.000000 0.000000 -3.376590 0.364990 5.987928 26.086055 9.239827 3.223787 54.126947 -20.487772 -3.301036 -17.326549 65.691141 -17.745926 0.000000 0.000000 0.000000 
9.458113 34.194202 -41.940498 -179.239436 -78.799005 179.518805 -0.493675 -5.691843 11.246442 -0.089104 6.127144 -37.676153 10.895051 10.488474 32.086367 -6.778100 6.693212 13.304975 0.000000 0.000000 0.000000 3.510308 -4.802090 9.105014 5.052142 1.919993 -31.040659 -3.502585 2.860981 21.827681 5.318536 1.194017 9.476393 0.000000 0.000000 0.000000 1.481493 -2.652041 -0.708030 -0.225254 3.844474 -6.750926 -1.307613 -3.174438 9.019069 -0.033200 -0.048508 0.092343 -1.504524 -1.508317 9.663037 0.320739 -4.185199 11.190009 0.000000 0.000000 0.000000 0.241404 -1.092628 6.585361 -3.714665 -7.493179 1.661215 -57.660273 22.497876 -1.157049 -165.388072 -77.789735 176.940804 0.000000 0.000000 0.000000 -3.595521 0.274547 5.922045 25.482010 8.532416 2.637652 54.386843 -20.897889 -0.269696 -18.156050 68.066674 -19.250391 0.000000 0.000000 0.000000 
9.891016 34.158924 -41.485111 -179.877950 -79.278900 -179.987588 -0.596688 -5.599244 11.814241 -0.545131 5.905590 -37.048473 12.190995 10.943234 31.428825 -6.216670 7.079624 11.550598 0.000000 0.000000 0.000000 3.374876 -4.726468 9.279040 4.501941 0.494940 -32.731708 -3.156117 2.733163 22.679793 5.670576 1.644345 10.208112 0.000000 0.000000 0.000000 1.460895 -2.482103 -0.065738 -0.267734 3.863840 -6.404861 -1.183905 -3.152057 9.137709 0.009946 -0.004409 -0.024019 -1.321731 -1.692150 9.699208 1.816891 -4.590144 11.515853 0.000000 0.000000 0.000000 0.323347 -1.102403 6.665025 -4.028844 -7.415945 1.666968 -57.517727 22.381794 -0.210078 -164.866341 -78.105720 177.402361 0.000000 0.000000 0.000000 -3.644676 0.225268 5.810821 24.627355 7.910665 2.076822 54.663097 -19.992823 2.406134 -20.161327 71.380558 -22.034206 0.000000 0.000000 0.000000 
10.422540 34.130844 -40.888950 179.127995 -79.577496 -179.100879 -0.668058 -5.266306 12.418649 -0.854011 5.195069 -36.542560 12.622327 10.344068 29.522472 -6.738457 6.814292 9.671270 0.000000 0.000000 0.000000 3.503699 -4.754723 9.329626 3.146198 0.591558 -34.809181 -3.714560 2.566573 23.822880 6.390918 2.571915 11.064196 0.000000 0.000000 0.000000 1.268753 -2.181254 0.874046 -0.289161 3.789415 -5.964251 -0.937530 -3.156625 9.186612 0.004952 0.044899 -0.014348 -0.935209 -1.758733 9.587578 3.549728 -5.155455 11.894435 0.000000 0.000000 0.000000 0.547387 -1.159458 6.571861 -4.500987 -7.331596 1.907224 -57.330873 22.238807 -0.046935 -164.265189 -79.238807 177.629069 0.000000 0.000000 0.000000 -3.450465 0.222472 5.611101 23.729074 7.516938 1.388345 55.030592 -17.628846 4.056649 -24.751362 75.486745 -27.462816 0.000000 0.000000 0.000000 
11.006647 34.125572 -40.196732 177.885447 -80.107375 -177.721864 -0.747824 -4.908892 12.829839 -1.428157 4.457329 -36.412896 12.813762 10.058388 27.076752 -7.378194 6.578290 9.412925 0.000000 0.000000 0.000000 3.489902 -4.273316 9.608052 0.832660 2.539502 -36.844605 -4.904629 2.718346 24.438207 7.191436 3.425445 11.394673 0.000000 0.000000 0.000000 0.968875 -1.857868 1.943310 -0.336159 3.728364 -5.604819 -0.636380 -3.162674 9.097553 0.025371 0.074986 0.020014 -0.341752 -1.855073 9.584737 5.415729 -5.807548 12.361731 0.000000 0.000000 0.000000 0.914135 -1.253304 6.605531 -4.913402 -7.471089 2.021590 -57.008013 22.066337 -0.342807 -162.917907 -80.574772 176.981403 0.000000 0.000000 0.000000 -3.040296 0.167753 5.574735 22.895615 7.184049 0.674982 55.166823 -14.023926 4.156179 -34.917559 79.655346 -38.434192 0.000000 0.000000 0.000000 
